<svg width="70" height="66" viewBox="0 0 70 66" fill="none" xmlns="http://www.w3.org/2000/svg">
<g opacity="0.1">
<path d="M67.907 25.5782C67.907 25.5782 68.1515 26.6385 67.3408 27.8223C67.3408 27.8223 68.6652 27.7815 69.3022 28.6587C69.3022 28.6587 69.0898 27.3836 69.9997 26.4146C69.9997 26.4146 68.7562 26.639 67.907 25.5782Z" fill="white"/>
</g>
<path d="M0.80461 41.9413C0.80461 41.9413 1.15207 43.4482 0 45.1306C0 45.1306 1.88223 45.0726 2.78741 46.3193C2.78741 46.3193 2.48569 44.5072 3.77883 43.13C3.77883 43.13 2.01154 43.449 0.80461 41.9413Z" fill="white"/>
<path d="M63.9397 41.8179C63.9397 41.8179 64.1842 42.8782 63.3735 44.062C63.3735 44.062 64.6979 44.0212 65.3348 44.8984C65.3348 44.8984 65.1226 43.6234 66.0325 42.6544C66.0325 42.6544 64.7889 42.8788 63.9397 41.8179Z" fill="white"/>
<g opacity="0.300003">
<g opacity="0.300003">
<path opacity="0.300003" d="M65.9771 63.496C65.9771 64.5977 52.1809 65.4907 35.1624 65.4907C18.1439 65.4907 4.34766 64.5977 4.34766 63.496C4.34766 62.3943 18.1439 61.5013 35.1624 61.5013C52.1809 61.5013 65.9771 62.3943 65.9771 63.496Z" fill="#000072"/>
</g>
</g>
<path d="M61.0992 61.001C59.8763 62.4315 58.0822 63.2363 56.2089 63.2363H14.1126C12.2393 63.2363 10.4452 62.4315 9.22233 61.001C8.54673 60.2101 8.04726 59.3292 7.71134 58.4279C7.71008 58.4279 7.71008 58.4279 7.71008 58.4267C6.65327 55.5985 7.19174 52.5634 8.87761 51.4717C11.7084 49.6362 13.8912 51.8792 13.8912 51.8792C14.1327 51.3067 14.4598 50.8104 14.8259 50.3851C16.2048 48.7781 18.1373 48.1663 18.1373 48.1663C17.0868 42.0872 19.4319 36.5794 19.4319 36.5794C19.4319 36.5794 25.2104 40.9854 35.1607 40.9854C45.1111 40.9854 50.8896 36.5794 50.8896 36.5794C50.8896 36.5794 53.2347 42.0872 52.1842 48.1663C52.1842 48.1663 55.2779 49.1462 56.4303 51.8792C56.4303 51.8792 58.6131 49.6362 61.4439 51.4717C63.667 52.9125 63.8947 57.7323 61.0992 61.001Z" fill="#B11313"/>
<g opacity="0.300003">
<g opacity="0.300003">
<path opacity="0.300003" d="M15.5709 57.4839C15.9609 53.6745 13.8926 52.0306 13.8926 52.0306C14.1341 51.4581 14.4612 50.9618 14.8274 50.5366C18.0355 54.4082 15.5709 57.4839 15.5709 57.4839Z" fill="#000072"/>
</g>
</g>
<g opacity="0.300003">
<g opacity="0.300003">
<path opacity="0.300003" d="M54.7647 57.4824C54.3747 53.673 56.443 52.0292 56.443 52.0292C56.2015 51.4567 55.8744 50.9603 55.5083 50.5351C52.3001 54.4067 54.7647 57.4824 54.7647 57.4824Z" fill="#000072"/>
</g>
</g>
<g opacity="0.300003">
<g opacity="0.300003">
<path opacity="0.300003" d="M55.0913 60.6816C54.7915 60.6063 54.4825 60.5804 54.1754 60.6145C53.7379 60.6629 52.9852 60.738 51.8811 60.8216C50.2194 60.9473 48.7682 59.6874 48.6547 58.01C48.606 57.2894 48.7129 56.7298 48.7516 56.5567C48.3176 58.4284 47.5164 60.1527 47.0278 61.0983C44.5477 61.2026 41.4064 61.2875 37.5219 61.3124C37.3123 53.7393 41.6726 46.6383 41.6726 46.6383C34.9917 52.0306 28.6602 46.6383 28.6602 46.6383C33.0687 54.5331 32.8391 60.9835 32.8391 60.9835L33.5816 61.3165C29.3395 61.2985 25.9469 61.2095 23.3049 61.0983C22.8163 60.1527 22.015 58.4284 21.5811 56.5567C21.6214 56.7368 21.7354 57.3349 21.6713 58.0975C21.5334 59.739 20.0809 60.9448 18.4528 60.8217C17.348 60.7381 16.595 60.6629 16.1573 60.6145C15.8502 60.5804 15.5412 60.6063 15.2414 60.6816C10.4516 61.8848 7.79736 58.6852 7.71191 58.5793C8.04783 59.4805 8.5473 60.3615 9.2229 61.1523C10.4458 62.5829 12.2398 63.3877 14.1132 63.3877H35.1664H56.2195C58.0929 63.3877 59.8869 62.5829 61.1098 61.1523C61.7854 60.3615 62.2849 59.4805 62.6208 58.5793C62.5353 58.6852 59.8811 61.8848 55.0913 60.6816Z" fill="#000072"/>
</g>
</g>
<g opacity="0.300003">
<g opacity="0.300003">
<path opacity="0.300003" d="M21.5819 56.5562C21.5736 56.5196 21.5684 56.4997 21.5684 56.4997C21.5727 56.5186 21.5775 56.5373 21.5819 56.5562Z" fill="#000072"/>
</g>
</g>
<g opacity="0.300003">
<g opacity="0.300003">
<path opacity="0.300003" d="M48.7505 56.5562C48.7549 56.5373 48.7597 56.5186 48.764 56.4997C48.764 56.4997 48.7588 56.5197 48.7505 56.5562Z" fill="#000072"/>
</g>
</g>
<path d="M35.1571 62.9475H56.2105C57.9765 62.9475 59.6387 62.1885 60.7708 60.8649C62.2332 59.155 62.9544 56.7872 62.6529 54.6854C62.4763 53.4548 61.9504 52.4735 61.21 51.9933C58.7065 50.3695 56.8216 52.2584 56.7426 52.3395C56.6407 52.4444 56.4937 52.4912 56.3504 52.4636C56.2072 52.4363 56.0871 52.3386 56.0301 52.2035C54.9686 49.6857 52.0838 48.7473 52.0548 48.7381C51.846 48.672 51.7181 48.4601 51.7557 48.2426C52.5911 43.4117 51.2111 38.8918 50.6827 37.4108C49.1006 38.4544 43.6565 41.5773 35.1622 41.5773C26.6679 41.5773 21.2238 38.4544 19.6418 37.4108C19.1133 38.8918 17.7333 43.4117 18.5687 48.2426C18.6063 48.4601 18.4784 48.672 18.2696 48.7381C18.2411 48.7473 15.3516 49.6957 14.2943 52.2035C14.2373 52.3386 14.1172 52.4363 13.9741 52.4636C13.8311 52.4911 13.6838 52.4444 13.5818 52.3395C13.503 52.2598 11.6019 50.3798 9.11438 51.9933C8.37401 52.4735 7.8481 53.4548 7.67161 54.6854C7.37011 56.7872 8.09124 59.1551 9.55366 60.8649C10.6857 62.1885 12.3479 62.9475 14.114 62.9475H35.1571ZM56.2105 63.8276H14.114C12.094 63.8276 10.1911 62.9573 8.89328 61.4399C7.2706 59.5426 6.47167 56.9062 6.80832 54.5593C7.02414 53.0545 7.67561 51.8802 8.64272 51.253C10.9444 49.7603 12.8864 50.7352 13.7398 51.3423C14.8222 49.3426 16.8307 48.3618 17.6503 48.0306C16.7375 42.0418 18.9365 36.7821 19.0325 36.5569C19.0854 36.4326 19.192 36.3398 19.3215 36.3053C19.4513 36.2706 19.5893 36.298 19.6962 36.3795C19.7527 36.4224 25.4909 40.6971 35.1622 40.6971C44.8335 40.6971 50.5718 36.4224 50.6286 36.3793C50.7356 36.298 50.8739 36.2707 51.0031 36.3054C51.1326 36.3401 51.2392 36.4327 51.292 36.5569C51.388 36.7821 53.5869 42.0418 52.6741 48.0306C53.4938 48.3618 55.5022 49.3426 56.5846 51.3423C57.4379 50.7352 59.3799 49.7598 61.6817 51.253C62.6488 51.8802 63.3003 53.0544 63.5162 54.5593C63.8528 56.906 63.0539 59.5426 61.4311 61.4399C60.1333 62.9573 58.2304 63.8276 56.2105 63.8276Z" fill="#000072"/>
<path d="M14.1464 51.6724C14.1943 51.7053 14.2165 51.7234 14.2495 51.748C14.2808 51.7714 14.306 51.7937 14.3345 51.8168C14.3912 51.863 14.4391 51.9117 14.4904 51.9596C14.543 52.0068 14.5862 52.0589 14.6334 52.1092C14.6809 52.1593 14.7255 52.211 14.7673 52.2643C14.9411 52.4745 15.0872 52.701 15.2175 52.9349C15.4786 53.4027 15.6521 53.9071 15.7727 54.4149C15.8903 54.9248 15.9337 55.4426 15.9338 55.9538C15.9347 56.2093 15.9065 56.464 15.8892 56.7157C15.8516 56.9673 15.8106 57.2167 15.7584 57.4625C15.7484 57.5095 15.7027 57.5393 15.6562 57.5293C15.6208 57.5217 15.5953 57.4932 15.5894 57.4594L15.5883 57.4533C15.5456 57.2063 15.519 56.9628 15.4869 56.7215L15.4244 56.3624C15.4015 56.2436 15.393 56.1237 15.3617 56.0072C15.3031 55.774 15.2717 55.5382 15.1977 55.3129C15.1655 55.1995 15.1403 55.0846 15.1052 54.973L14.9927 54.6418C14.8376 54.2048 14.648 53.7869 14.4196 53.4005C14.3602 53.3058 14.3045 53.2078 14.2399 53.1181L14.1465 52.9805L14.0463 52.8498C13.9828 52.7596 13.9091 52.6803 13.8402 52.5989C13.8046 52.5603 13.7694 52.5184 13.7335 52.484C13.7162 52.4663 13.6978 52.4454 13.6816 52.4301C13.6671 52.4159 13.6433 52.3934 13.6417 52.3902L13.5475 52.1995C13.4465 51.9946 13.5291 51.7459 13.7321 51.6439C13.8696 51.5748 14.0277 51.5912 14.1464 51.6724Z" fill="#000072"/>
<path d="M56.6755 52.3902C56.6738 52.3935 56.6501 52.4159 56.6355 52.4301C56.6193 52.4454 56.6009 52.4664 56.5836 52.484C56.5477 52.5184 56.5125 52.5603 56.4769 52.599C56.408 52.6803 56.3343 52.7596 56.2708 52.8498L56.1706 52.9805L56.0772 53.1182C56.0126 53.2078 55.9569 53.3058 55.8975 53.4005C55.6691 53.7869 55.4796 54.2048 55.3244 54.6418L55.212 54.973C55.1769 55.0846 55.1517 55.1995 55.1194 55.3129C55.0455 55.5382 55.0141 55.774 54.9555 56.0072C54.9242 56.1237 54.9157 56.2437 54.8928 56.3624L54.8303 56.7215C54.7982 56.9628 54.7715 57.2063 54.7288 57.4533L54.7278 57.4593C54.7196 57.5066 54.675 57.5382 54.6281 57.5299C54.5925 57.5237 54.5659 57.4962 54.5588 57.4626C54.5066 57.2167 54.4655 56.9673 54.4279 56.7158C54.4107 56.464 54.3824 56.2093 54.3833 55.9538C54.3834 55.4426 54.4269 54.9249 54.5444 54.4149C54.665 53.9071 54.8385 53.4027 55.0996 52.9349C55.2299 52.701 55.376 52.4746 55.5498 52.2643C55.5916 52.2111 55.6363 52.1593 55.6837 52.1092C55.7309 52.0589 55.7742 52.0068 55.8267 51.9597C55.878 51.9117 55.9259 51.863 55.9826 51.8169C56.0111 51.7937 56.0364 51.7714 56.0676 51.748C56.1006 51.7235 56.1229 51.7053 56.1707 51.6724C56.3582 51.5435 56.6136 51.5924 56.7413 51.7815C56.8279 51.9096 56.8336 52.0692 56.7699 52.199L56.6755 52.3902Z" fill="#000072"/>
<path d="M18.5732 48.266L18.6088 48.6176L18.6532 49.0109C18.6688 49.1449 18.6896 49.2794 18.7011 49.4205C18.7139 49.5612 18.7215 49.7071 18.7144 49.8646L18.7144 49.8653C18.7133 49.8901 18.6925 49.9093 18.6679 49.9082C18.6591 49.9077 18.651 49.9048 18.6443 49.9C18.5162 49.809 18.4059 49.7045 18.3105 49.5907C18.2128 49.4777 18.1328 49.3544 18.0548 49.228C17.9786 49.1007 17.9091 48.9684 17.8487 48.8298C17.8203 48.7599 17.7908 48.6897 17.768 48.6155C17.7556 48.579 17.7445 48.5411 17.7345 48.5023C17.7237 48.4605 17.7165 48.4298 17.7071 48.3705C17.6693 48.1303 17.8316 47.9047 18.0696 47.8665C18.3077 47.8283 18.5313 47.9921 18.5691 48.2323C18.5703 48.24 18.5713 48.2477 18.5722 48.2553L18.5732 48.266Z" fill="#000072"/>
<path d="M52.6272 48.3705C52.6178 48.4298 52.6106 48.4605 52.5998 48.5024C52.5899 48.5411 52.5787 48.579 52.5664 48.6155C52.5435 48.6897 52.514 48.7599 52.4856 48.8299C52.4251 48.9685 52.3557 49.1007 52.2795 49.228C52.2015 49.3544 52.1215 49.4777 52.0238 49.5907C51.9284 49.7046 51.8181 49.809 51.69 49.9C51.6699 49.9143 51.6421 49.9094 51.628 49.8891C51.6229 49.8819 51.6203 49.8736 51.6199 49.8653L51.6199 49.8647C51.6128 49.7071 51.6204 49.5613 51.6332 49.4206C51.6447 49.2794 51.6655 49.1449 51.6811 49.0109L51.7255 48.6176L51.7611 48.266L51.762 48.2567C51.7865 48.0148 52.0007 47.8386 52.2404 47.8633C52.4802 47.888 52.6548 48.1041 52.6303 48.346C52.6295 48.3538 52.6283 48.3629 52.6272 48.3705Z" fill="#000072"/>
<path d="M20.6895 52.6279C20.6895 52.6279 18.6929 51.0657 18.1403 48.3184C18.1403 48.3184 16.9916 47.7327 16.1978 49.3176C16.1978 49.3176 17.1135 54.1558 21.5697 56.5005C21.5697 56.5005 20.9258 54.0097 20.6895 52.6279Z" fill="#0096F2"/>
<path d="M16.6588 49.3804C16.8387 50.1192 17.8071 53.4929 20.8895 55.5818C20.6945 54.7833 20.4359 53.6799 20.2877 52.8632C19.8253 52.4589 18.3205 50.9963 17.7676 48.6577C17.5165 48.6141 17.0645 48.665 16.6588 49.3804ZM21.5693 56.9404C21.5004 56.9404 21.4313 56.924 21.3677 56.8906C16.7772 54.4752 15.808 49.606 15.769 49.4C15.7509 49.3046 15.7647 49.2058 15.8082 49.119C16.304 48.129 16.9524 47.8484 17.4091 47.7874C17.9143 47.7193 18.2949 47.9043 18.3366 47.9256C18.4558 47.9863 18.5408 48.0988 18.5674 48.2308C19.0791 50.7749 20.9384 52.2658 20.9571 52.2805C21.0424 52.3479 21.1006 52.4453 21.1189 52.553C21.3494 53.9005 21.985 56.3646 21.9914 56.3893C22.0349 56.5576 21.976 56.7361 21.8411 56.8446C21.7622 56.908 21.6661 56.9404 21.5693 56.9404Z" fill="#000072"/>
<path d="M49.6463 52.6279C49.6463 52.6279 51.6429 51.0657 52.1956 48.3184C52.1956 48.3184 53.3442 47.7327 54.1381 49.3176C54.1381 49.3176 53.2223 54.1558 48.7661 56.5005C48.7661 56.5005 49.41 54.0097 49.6463 52.6279Z" fill="#0096F2"/>
<path d="M50.0479 52.8627C49.8996 53.6796 49.6411 54.7829 49.446 55.5814C52.5283 53.4925 53.4968 50.1193 53.6768 49.3798C53.4311 48.9455 53.1405 48.7032 52.8119 48.6594C52.7197 48.647 52.6353 48.6522 52.5666 48.6631C52.0126 50.9984 50.5099 52.4587 50.0479 52.8627ZM48.7663 56.9399C48.6695 56.9399 48.5733 56.9074 48.4945 56.8441C48.3596 56.7356 48.3007 56.5571 48.3442 56.3888C48.3506 56.3641 48.9862 53.9 49.2166 52.5525C49.2351 52.4444 49.2928 52.3474 49.3785 52.2801C49.3972 52.2653 51.2565 50.7744 51.7683 48.2303C51.7948 48.0983 51.8798 47.9859 51.999 47.9251C52.0406 47.9038 52.4211 47.7187 52.9265 47.7869C53.3831 47.8479 54.0315 48.1285 54.5274 49.1185C54.5709 49.2053 54.5847 49.3041 54.5666 49.3995C54.5276 49.6056 53.5585 54.4747 48.9679 56.8901C48.9043 56.9234 48.8352 56.9399 48.7663 56.9399Z" fill="#000072"/>
<path d="M26.7046 41.3866C26.7046 41.3866 27.4542 43.5307 27.2385 46.6588L29.7085 48.8271C29.7085 48.8271 30.354 45.0479 29.2546 41.9092L26.7046 41.3866Z" fill="#0096F2"/>
<path d="M27.6859 46.4694L29.3748 47.9521C29.4892 46.7461 29.5867 44.3817 28.9201 42.2899L27.316 41.9611C27.5233 42.8314 27.8 44.4326 27.6859 46.4694ZM29.707 49.2671C29.6034 49.2671 29.5013 49.2298 29.4207 49.159L26.9508 46.9906C26.8476 46.9 26.7925 46.7658 26.802 46.6282C27.0081 43.639 26.2988 41.5532 26.2916 41.5324C26.2398 41.3831 26.2714 41.2168 26.3745 41.0976C26.4777 40.9783 26.6365 40.9245 26.7899 40.9553L29.3399 41.4778C29.4901 41.5085 29.6132 41.6166 29.6643 41.7624C30.7887 44.9725 30.1639 48.7429 30.1368 48.9018C30.11 49.0584 30.0017 49.1883 29.8532 49.2416C29.8056 49.2587 29.7561 49.2671 29.707 49.2671Z" fill="#000072"/>
<path d="M43.6301 41.3866C43.6301 41.3866 42.8805 43.5307 43.0962 46.6588L40.6263 48.8271C40.6263 48.8271 39.9808 45.0479 41.0802 41.9092L43.6301 41.3866Z" fill="#0096F2"/>
<path d="M41.4136 42.2899C40.7457 44.3854 40.8436 46.7478 40.9584 47.9525L42.6478 46.4694C42.5338 44.4325 42.8104 42.8314 43.0177 41.9611L41.4136 42.2899ZM40.6267 49.2671C40.5776 49.2671 40.5281 49.2587 40.4804 49.2415C40.332 49.1883 40.2237 49.0584 40.1969 48.9018C40.1698 48.7429 39.545 44.9725 40.6694 41.7624C40.7205 41.6166 40.8436 41.5085 40.9938 41.4778L43.5438 40.9553C43.6977 40.9233 43.8566 40.9782 43.9596 41.0977C44.0626 41.2172 44.0941 41.3833 44.042 41.5327C44.0306 41.5657 43.3263 43.648 43.5318 46.6282C43.5412 46.7658 43.4861 46.9 43.3829 46.9906L40.913 49.159C40.8324 49.2298 40.7303 49.2671 40.6267 49.2671Z" fill="#000072"/>
<path d="M32.7035 62.0133C32.082 65.0929 28.5392 66.5019 26.0494 64.6143C24.1006 63.138 21.9605 59.7615 20.6383 52.3572C20.5125 51.6476 20.3929 50.8999 20.2822 50.1142L21.1239 49.3094L26.7036 43.9704C26.7036 43.9704 32.2003 52.5565 32.8092 59.1382V59.1395C32.9048 60.1588 32.8822 61.1299 32.7035 62.0133Z" fill="#B11313"/>
<g opacity="0.300003">
<g opacity="0.300003">
<path opacity="0.300003" d="M32.7035 62.0124C32.082 65.0919 28.5392 66.5009 26.0494 64.6133C24.1006 63.137 21.9605 59.7605 20.6383 52.3562C18.7775 51.2252 18.1384 48.317 18.1384 48.317C17.3357 44.4556 18.2617 40.8963 18.2617 40.8963C18.0855 45.5964 19.9344 47.8384 20.6971 48.5582C20.9096 48.7587 21.0581 49.0174 21.1228 49.3036C21.1232 49.3052 21.1235 49.3068 21.1239 49.3084C22.4864 55.3913 24.7686 62.8019 28.08 63.3325C31.2768 63.8441 32.6545 59.6424 32.8092 59.1385C32.9048 60.1578 32.8822 61.1289 32.7035 62.0124Z" fill="#000072"/>
</g>
</g>
<path d="M27.1823 43.5594C27.8176 44.2576 28.3199 45.0363 28.7754 45.8408C29.0015 46.244 29.2077 46.6576 29.4126 47.0719C29.6174 47.4863 29.818 47.9028 30.0136 48.322C30.7967 49.9979 31.5096 51.7115 32.1019 53.4774C32.6947 55.241 33.172 57.0634 33.3461 58.9606C33.4298 59.9078 33.435 60.877 33.2754 61.8472C33.2409 62.0853 33.1905 62.341 33.1128 62.5871C33.0424 62.8351 32.9424 63.0743 32.8342 63.3087C32.6084 63.7737 32.3075 64.2026 31.9487 64.5735C31.2236 65.308 30.2656 65.8033 29.2485 65.9489C28.7413 66.0289 28.2203 66.0114 27.7147 65.921C27.2096 65.8242 26.7217 65.6412 26.2757 65.3892C26.0576 65.259 25.8379 65.1159 25.6483 64.9582L25.3641 64.7229C25.2681 64.6456 25.1856 64.5558 25.096 64.4727C25.0094 64.3869 24.9172 64.3056 24.8356 64.2158L24.5923 63.9455C24.4245 63.7693 24.2852 63.5735 24.1345 63.3855C23.5523 62.6194 23.0879 61.7864 22.6802 60.937C22.2659 60.0883 21.9492 59.2058 21.6424 58.3235C21.3577 57.4346 21.0984 56.5396 20.8851 55.6355C20.7796 55.1833 20.6664 54.7326 20.5804 54.2771C20.4917 53.8221 20.3856 53.3701 20.3212 52.9114C20.1785 51.9959 20.1115 51.0679 20.19 50.1267C20.1945 50.0735 20.2408 50.034 20.2935 50.0385C20.3303 50.0416 20.3604 50.0653 20.3739 50.0974L20.375 50.1002C20.5563 50.5376 20.6935 50.9789 20.8118 51.4226C20.9283 51.8667 21.049 52.3079 21.1405 52.7545C21.228 53.2022 21.3305 53.6453 21.427 54.0901C21.5187 54.5363 21.6368 54.9748 21.747 55.4155C21.9699 56.2962 22.2366 57.1622 22.5257 58.0178C22.8357 58.8636 23.1542 59.7083 23.5593 60.5031C23.956 61.301 24.4086 62.0667 24.9403 62.7564C25.0777 62.9241 25.2051 63.1025 25.3553 63.256L25.5729 63.4945C25.6457 63.5737 25.7267 63.6425 25.8029 63.7173C25.8816 63.7887 25.9545 63.8684 26.0376 63.9333L26.2832 64.1331C26.4459 64.267 26.6122 64.3705 26.7858 64.4739C27.1364 64.6674 27.5141 64.8054 27.9045 64.8774C28.2954 64.9428 28.6976 64.9551 29.0904 64.8888C29.8788 64.7712 30.6204 64.3756 31.1775 63.8063C31.4551 63.5201 31.688 63.1903 31.8642 62.8308C31.9476 62.6487 32.0271 62.4639 32.0819 62.2697C32.1435 62.0779 32.1828 61.8817 32.2145 61.6654C32.3559 60.8216 32.3573 59.9376 32.2811 59.0562C32.2038 58.1735 32.0485 57.2899 31.8474 56.414C31.6475 55.5374 31.3977 54.6681 31.1196 53.8069C30.5623 52.0838 29.8812 50.3942 29.1283 48.7374C28.9403 48.3229 28.7471 47.9107 28.5498 47.5004C28.3534 47.0896 28.1467 46.6841 27.9551 46.2705C27.5682 45.4453 27.2039 44.6066 26.9164 43.7199L26.9154 43.7169C26.8882 43.6331 26.9336 43.543 27.0166 43.5156C27.0774 43.4955 27.1416 43.5148 27.1823 43.5594Z" fill="#000072"/>
<path d="M21.8601 57.9233C21.7426 57.9233 21.6255 57.8759 21.5396 57.7819C21.3763 57.6034 21.3871 57.3253 21.5638 57.1605C21.7256 57.0095 25.5942 53.4587 31.5172 53.0119C31.7567 52.9925 31.9667 53.1756 31.9847 53.4179C32.0026 53.6603 31.8224 53.8715 31.5822 53.8896C25.9735 54.3127 22.1933 57.772 22.1558 57.8068C22.0719 57.8848 21.9658 57.9233 21.8601 57.9233Z" fill="#000072"/>
<path d="M37.6301 62.0133C38.2516 65.0929 41.7945 66.5019 44.2843 64.6143C46.2331 63.138 48.3731 59.7615 49.6954 52.3572C49.8212 51.6476 49.9407 50.8999 50.0514 50.1142L49.2098 49.3094L43.6301 43.9704C43.6301 43.9704 38.1334 52.5565 37.5245 59.1382V59.1395C37.4288 60.1588 37.4515 61.1299 37.6301 62.0133Z" fill="#B11313"/>
<g opacity="0.300003">
<g opacity="0.300003">
<path opacity="0.300003" d="M37.6326 62.0124C38.2541 65.0919 41.7969 66.5009 44.2867 64.6133C46.2355 63.137 48.3756 59.7605 49.6978 52.3562C51.5586 51.2252 52.1977 48.317 52.1977 48.317C53.0004 44.4556 52.0744 40.8963 52.0744 40.8963C52.2506 45.5964 50.4017 47.8384 49.639 48.5582C49.4265 48.7587 49.278 49.0174 49.2133 49.3036C49.2129 49.3052 49.2126 49.3068 49.2122 49.3084C47.8497 55.3913 45.5675 62.8019 42.2561 63.3325C39.0593 63.8441 37.6816 59.6424 37.5269 59.1385C37.4313 60.1578 37.4539 61.1289 37.6326 62.0124Z" fill="#000072"/>
</g>
</g>
<path d="M43.4194 43.7198C43.1319 44.6065 42.7675 45.4453 42.3807 46.2705C42.1891 46.6841 41.9823 47.0896 41.786 47.5004C41.5886 47.9106 41.3954 48.3229 41.2075 48.7374C40.4546 50.3942 39.7735 52.0838 39.2161 53.8069C38.9381 54.6681 38.6882 55.5374 38.4884 56.414C38.2873 57.2899 38.132 58.1735 38.0547 59.0562C37.9785 59.9376 37.9799 60.8215 38.1212 61.6654C38.153 61.8817 38.1923 62.0779 38.2538 62.2697C38.3086 62.4639 38.3882 62.6487 38.4716 62.8307C38.6477 63.1903 38.8807 63.5201 39.1583 63.8063C39.7153 64.3756 40.457 64.7712 41.2454 64.8888C41.6382 64.9551 42.0404 64.9428 42.4313 64.8774C42.8217 64.8054 43.1994 64.6674 43.55 64.4739C43.7236 64.3705 43.8898 64.267 44.0526 64.1331L44.2981 63.9333C44.3813 63.8684 44.4541 63.7887 44.5328 63.7173C44.6091 63.6425 44.6901 63.5737 44.7628 63.4945L44.9805 63.256C45.1307 63.1025 45.2581 62.9241 45.3955 62.7564C45.9272 62.0667 46.3798 61.301 46.7765 60.5031C47.1816 59.7082 47.5001 58.8636 47.8101 58.0178C48.0992 57.1622 48.3659 56.2962 48.5888 55.4155C48.699 54.9749 48.8171 54.5363 48.9087 54.0901C49.0053 53.6453 49.1078 53.2022 49.1953 52.7545C49.2868 52.3078 49.4075 51.8667 49.524 51.4226C49.6423 50.9789 49.7794 50.5375 49.9608 50.1001L49.9619 50.0975C49.9823 50.0482 50.0384 50.025 50.0873 50.0456C50.1213 50.06 50.1428 50.092 50.1458 50.1267C50.2242 51.0679 50.1573 51.9959 50.0146 52.9114C49.9502 53.3702 49.844 53.8221 49.7554 54.2771C49.6694 54.7326 49.5562 55.1833 49.4507 55.6355C49.2374 56.5396 48.9781 57.4346 48.6934 58.3235C48.3866 59.2058 48.0698 60.0883 47.6555 60.937C47.2479 61.7863 46.7835 62.6194 46.2013 63.3855C46.0506 63.5735 45.9113 63.7693 45.7434 63.9455L45.5002 64.2158C45.4186 64.3056 45.3264 64.3869 45.2398 64.4727C45.1501 64.5558 45.0677 64.6455 44.9717 64.7229L44.6874 64.9582C44.4978 65.1159 44.2782 65.2591 44.06 65.3892C43.6141 65.6412 43.1262 65.8242 42.621 65.921C42.1155 66.0114 41.5945 66.0289 41.0873 65.9489C40.0701 65.8033 39.1122 65.308 38.3871 64.5735C38.0283 64.2026 37.7274 63.7737 37.5016 63.3087C37.3934 63.0743 37.2934 62.8351 37.223 62.5871C37.1453 62.341 37.0949 62.0853 37.0604 61.8472C36.9008 60.877 36.906 59.9078 36.9897 58.9606C37.1637 57.0634 37.6411 55.241 38.2339 53.4774C38.8261 51.7115 39.5391 49.9979 40.3222 48.3219C40.5177 47.9028 40.7184 47.4863 40.9232 47.0719C41.1281 46.6576 41.3343 46.244 41.5603 45.8408C42.0159 45.0363 42.5182 44.2576 43.1535 43.5594C43.2126 43.4944 43.3126 43.4901 43.377 43.5497C43.4241 43.5934 43.439 43.6592 43.4205 43.7168L43.4194 43.7198Z" fill="#000072"/>
<path d="M48.4764 57.9233C48.3706 57.9233 48.2646 57.8848 48.1807 57.8066C48.1432 57.7717 44.363 54.3124 38.7542 53.8893C38.514 53.8712 38.3339 53.66 38.3518 53.4176C38.3697 53.1753 38.5794 52.9923 38.8192 53.0117C44.7422 53.4584 48.6108 57.0092 48.7726 57.1602C48.9495 57.3252 48.9603 57.6036 48.7968 57.782C48.7108 57.8759 48.5938 57.9233 48.4764 57.9233Z" fill="#000072"/>
<path d="M35.1737 39.7192C46.5802 39.7192 51.1093 34.6917 51.1093 34.6917C51.1093 34.6917 51.2993 35.1246 51.3918 35.7399C51.545 36.7586 51.1162 37.7805 50.2997 38.3994C48.5049 39.7598 43.9348 42.3521 35.1678 42.3521C26.4008 42.3521 21.8306 39.7598 20.0359 38.3994C19.2194 37.7805 18.7906 36.7586 18.9438 35.7399C19.0363 35.1246 19.2263 34.6917 19.2263 34.6917C19.2263 34.6917 23.7554 39.7192 35.1619 39.7192" fill="#751313"/>
<g opacity="0.300003">
<g opacity="0.300003">
<path opacity="0.300003" d="M51.3486 35.5045C51.2019 36.1435 50.8344 36.7241 50.2982 37.1305C48.5035 38.4909 43.9333 41.0832 35.1663 41.0832C26.3993 41.0832 21.8292 38.4909 20.0344 37.1305C19.4982 36.7241 19.1308 36.1435 18.984 35.5045C18.9688 35.5796 18.9547 35.6582 18.9423 35.7403C18.7891 36.7591 19.2179 37.781 20.0344 38.3999C21.8292 39.7603 26.3993 42.3525 35.1663 42.3525C43.9333 42.3525 48.5035 39.7603 50.2982 38.3999C51.1147 37.781 51.5435 36.7591 51.3903 35.7403C51.3779 35.6582 51.3638 35.5796 51.3486 35.5045Z" fill="#000072"/>
</g>
</g>
<path d="M35.1686 42.792C26.4134 42.792 21.7659 40.2602 19.7748 38.751C18.8202 38.0273 18.3368 36.8482 18.5135 35.6738C18.6135 35.0077 18.8196 34.5332 18.8284 34.5134C18.8881 34.3773 19.0119 34.2808 19.1575 34.2571C19.3028 34.2331 19.4506 34.2854 19.5499 34.3955C19.5937 34.4437 24.115 39.279 35.1628 39.279V40.1591C25.727 40.1591 20.9406 36.8009 19.4347 35.4931C19.4129 35.5895 19.3926 35.6944 19.3758 35.8057C19.2475 36.6595 19.6011 37.5186 20.2988 38.0474C22.2028 39.4906 26.6667 41.9119 35.1686 41.9119C43.6706 41.9119 48.1345 39.4906 50.0387 38.0474C50.7362 37.5186 51.0898 36.6597 50.9615 35.8057C50.9447 35.6944 50.9244 35.5895 50.9026 35.4931C49.3967 36.8009 44.6103 40.1591 35.1745 40.1591V39.279C46.2598 39.279 50.7434 34.4443 50.7874 34.3955C50.8867 34.2854 51.0343 34.2334 51.1798 34.2571C51.3254 34.2808 51.4492 34.3773 51.5089 34.5134C51.5177 34.5332 51.7238 35.0077 51.8238 35.6738C52.0005 36.8482 51.5172 38.0275 50.5626 38.751C48.5715 40.2602 43.924 42.792 35.1686 42.792Z" fill="#000072"/>
<g opacity="0.3">
<path d="M0.68773 6.51959C0.68773 6.51959 0.93223 7.57988 0.121582 8.76368C0.121582 8.76368 1.44597 8.72288 2.08289 9.6001C2.08289 9.6001 1.87058 8.32505 2.78046 7.35603C2.78046 7.35603 1.53695 7.58044 0.68773 6.51959Z" fill="white"/>
</g>
<path d="M19.2363 38.4122L26.2693 54.5654" stroke="#000072" stroke-miterlimit="10"/>
<path d="M43.7612 54.5654L50.9434 38.4122" stroke="#000072" stroke-miterlimit="10"/>
<path fill-rule="evenodd" clip-rule="evenodd" d="M34.6518 45.0086C34.6489 45.0475 34.6255 45.0824 34.6099 45.1206C34.5948 45.1577 34.581 45.1974 34.568 45.2363C34.534 45.3377 34.5022 45.4375 34.5051 45.5689C34.6211 45.5843 34.7673 45.5728 34.8719 45.558C34.9291 45.5836 34.9658 45.6234 35.0186 45.652C35.0087 45.6029 35.0563 45.5936 35.0972 45.5797C35.0791 45.6009 35.0509 45.6152 35.0605 45.6556C35.0844 45.6666 35.0882 45.6375 35.1077 45.6339C35.1347 45.6551 35.1689 45.654 35.1968 45.6339C35.2169 45.6369 35.2114 45.6576 35.2335 45.6592C35.2646 45.6311 35.2202 45.6006 35.2073 45.5797C35.2461 45.5938 35.2904 45.6043 35.2859 45.6484C35.3282 45.6306 35.3798 45.5879 35.4221 45.558C35.5313 45.5739 35.6709 45.5812 35.7994 45.5725C35.7951 45.3525 35.7177 45.183 35.6422 45.0122C35.6632 45.0104 35.663 45.0294 35.6684 45.0375C35.7464 45.1538 35.8157 45.2867 35.8728 45.4279C35.8811 45.4484 35.895 45.4763 35.9042 45.5038C35.9123 45.5279 35.9293 45.5698 35.9252 45.5833C35.9162 45.613 35.8452 45.6229 35.8309 45.6484C35.7872 45.6128 35.6615 45.6231 35.5427 45.6195C35.509 45.6184 35.4638 45.6118 35.4431 45.6158C35.3974 45.6248 35.3774 45.6708 35.354 45.6954C35.4186 45.6984 35.4696 45.6553 35.527 45.652C35.5633 45.6499 35.6165 45.6688 35.6632 45.6773C35.7983 45.702 35.949 45.7228 36.0719 45.7496C36.0794 45.4589 35.9711 45.2167 35.8257 45.0194C35.9702 45.157 36.0676 45.3181 36.1401 45.5074C36.1526 45.5401 36.1633 45.5713 36.1715 45.605C36.183 45.6523 36.1834 45.7108 36.2187 45.746C36.1752 45.7786 36.1229 45.8052 36.0771 45.8363C35.9484 45.7834 35.6996 45.7069 35.4903 45.7207C35.4401 45.724 35.3958 45.7412 35.3592 45.764C35.4232 45.7817 35.4675 45.7833 35.5531 45.7821C35.5744 45.7818 35.6052 45.7757 35.6213 45.7785C35.6395 45.7817 35.6686 45.8076 35.6946 45.8255C35.846 45.9299 35.9814 46.0064 36.161 46.0894C36.2171 46.1153 36.2488 46.1417 36.313 46.1074C36.3236 46.4505 36.1915 46.7036 36.03 46.9351C36.0112 46.9621 35.9992 46.9935 35.9671 47.0147C36.0886 46.817 36.1819 46.5817 36.1819 46.3062C36.1819 46.2773 36.19 46.2413 36.1819 46.2159C36.1706 46.1797 36.0881 46.1414 36.0405 46.111C35.905 46.0248 35.7973 45.9643 35.6475 45.8833C35.6181 45.8674 35.5932 45.846 35.5689 45.8399C35.5433 45.8335 35.5031 45.8322 35.4745 45.8291C35.4388 45.8252 35.4045 45.8242 35.375 45.8219C35.4329 45.8648 35.5248 45.9181 35.6055 45.9592C35.6203 45.9683 35.6357 45.956 35.6527 45.9556C35.6719 46.3585 35.6285 46.7532 35.4641 47.0472C35.4248 47.1174 35.3813 47.1863 35.3121 47.2388C35.5356 46.9605 35.5524 46.4828 35.506 46.064C35.5534 46.0356 35.5328 46.012 35.4903 45.9773C35.4437 45.9393 35.361 45.8838 35.3069 45.8652C35.303 45.8841 35.3124 45.9025 35.3226 45.9195C35.3328 45.9365 35.3555 45.9512 35.3592 45.9665C35.3672 45.9988 35.3481 46.0698 35.3383 46.1074C35.3059 46.2321 35.2376 46.369 35.1758 46.4616C35.1541 46.4598 35.1693 46.4324 35.1549 46.4255C35.1316 46.4263 35.1457 46.4529 35.1339 46.4616C35.0618 46.3768 35.0002 46.2362 34.9662 46.1074C34.9541 46.0614 34.9353 46.006 34.9453 45.9665C34.9532 45.935 35.0023 45.9065 34.9977 45.8689C34.9497 45.8765 34.905 45.9094 34.8667 45.9375C34.8285 45.9656 34.7889 45.9959 34.7619 46.0279C34.7651 46.0437 34.7874 46.0464 34.7933 46.0604C34.7589 46.4841 34.7601 46.961 34.9924 47.2352C34.9679 47.2329 34.9565 47.2115 34.9453 47.199C34.7289 46.9603 34.6708 46.5924 34.6466 46.2122C34.6412 46.1282 34.6357 46.0461 34.6518 45.9628C34.6563 45.9454 34.6832 45.9712 34.699 45.9592C34.7817 45.9163 34.8562 45.8676 34.9348 45.8219C34.8663 45.8291 34.792 45.8268 34.7304 45.8436C34.677 45.8581 34.6185 45.8983 34.568 45.9267C34.4141 46.0131 34.2521 46.107 34.1225 46.205C34.0961 46.5276 34.2032 46.7875 34.3322 47.0147C34.1461 46.7645 33.9735 46.4863 33.9915 46.1074C34.0624 46.1538 34.1704 46.0783 34.2274 46.0496C34.386 45.9695 34.5554 45.8662 34.678 45.7785C34.7668 45.7875 34.871 45.7802 34.9453 45.7676C34.8527 45.6862 34.6154 45.7271 34.4736 45.7568C34.3785 45.7768 34.2898 45.8054 34.2326 45.8363C34.1782 45.8112 34.1366 45.7773 34.0859 45.7496C34.123 45.6853 34.1309 45.5773 34.1592 45.5038C34.2285 45.3243 34.3366 45.1655 34.4684 45.0194C34.4649 45.0472 34.437 45.0711 34.4213 45.0953C34.3064 45.2715 34.2308 45.4899 34.2274 45.746C34.3485 45.727 34.493 45.7037 34.6361 45.6773C34.6827 45.6687 34.731 45.6511 34.7671 45.652C34.8253 45.6534 34.8801 45.6949 34.9453 45.6954C34.9298 45.6614 34.9002 45.6373 34.8667 45.6158C34.7587 45.6244 34.6382 45.611 34.5418 45.6231C34.5319 45.6243 34.5191 45.6283 34.5051 45.6339C34.5063 45.6334 34.4739 45.6483 34.4789 45.6484C34.4571 45.6482 34.4039 45.5961 34.3793 45.5905C34.4297 45.3686 34.5433 45.1904 34.6518 45.0086Z" fill="#000072"/>
<path fill-rule="evenodd" clip-rule="evenodd" d="M35.1689 42.792V49.0332V42.792Z" fill="#000072"/>
<path d="M35.1689 42.792V49.0332" stroke="#000072" stroke-miterlimit="10"/>
<path d="M33.2371 42.7496C33.2371 42.7496 33.5771 47.8624 33.0791 48.7676" stroke="#000072" stroke-miterlimit="10"/>
<path d="M31.709 42.6521C31.709 42.6521 32.4758 45.0176 31.3677 48.2129" stroke="#000072" stroke-miterlimit="10"/>
<path d="M36.9313 42.7922C36.9313 42.7922 36.5757 47.3223 37.0899 48.8647" stroke="#000072" stroke-miterlimit="10"/>
<path d="M38.7448 42.6511C38.7448 42.6511 37.9319 47.1432 39.139 48.2119" stroke="#000072" stroke-miterlimit="10"/>
<path d="M30.1206 43.5492C30.1206 43.5492 30.8863 42.8119 31.8918 43.5492C31.8918 43.5492 32.416 42.8175 33.2875 43.6499C33.2875 43.6499 33.7629 42.7385 35.1621 43.5492C35.1621 43.5492 35.7526 42.7874 36.812 43.5492C36.812 43.5492 37.6443 42.7034 38.6192 43.5072C38.6192 43.5072 39.4885 42.5526 40.2411 43.4052" stroke="#000072" stroke-miterlimit="10"/>
<path d="M35.0571 44.7212C35.0297 44.7016 35.0025 44.6831 34.9755 44.6657C34.0226 44.0495 33.3311 44.7383 33.3311 44.7383C32.6242 43.998 31.9686 44.7383 31.9686 44.7383C30.8697 43.4448 30.2764 44.7383 30.2764 44.7383" stroke="#000072" stroke-miterlimit="10"/>
<path d="M35.0293 44.7345C35.0293 44.7345 35.898 44.0318 36.8118 44.7345C36.8118 44.7345 37.6997 43.8648 38.477 44.7734C38.477 44.7734 39.6309 43.8775 40.0613 44.7553" stroke="#000072" stroke-miterlimit="10"/>
<path d="M30.2764 46.8986C30.2764 46.8986 30.9814 45.7267 31.7234 46.9981C31.7234 46.9981 33.0542 46.0705 33.3374 47.3659C33.3374 47.3659 34.4393 46.8007 35.2095 47.731C35.2095 47.731 36.0255 46.768 36.9706 47.5025C36.9706 47.5025 37.6017 46.0297 38.6698 47.1659C38.6698 47.1659 39.3279 45.9379 40.0617 46.6386" stroke="#000072" stroke-miterlimit="10"/>
<path d="M30.2036 47.5997C30.2036 47.5997 31.1218 46.6601 31.5233 47.7313C31.5233 47.7313 32.8458 47.1281 33.2151 48.2131C33.2151 48.2131 34.5817 47.4899 35.1506 48.647C35.1506 48.647 35.9592 47.8782 36.9312 48.4005C36.9312 48.4005 37.8246 47.0447 38.8587 47.845C38.8587 47.845 39.5945 46.5769 40.0348 47.3663" stroke="#000072" stroke-miterlimit="10"/>
<path d="M22.1553 57.8066C22.1553 57.8066 26.2248 53.4904 31.3686 53.9071L32.5378 57.5307C32.5378 57.5307 31.2739 62.9107 23.3062 61.098L22.1553 57.8066Z" fill="#000072"/>
<path d="M22.1553 57.8066C22.1553 57.8066 26.2248 53.4904 31.3686 53.9071L32.5378 57.5307C32.5378 57.5307 31.2739 62.9107 23.3062 61.098L22.1553 57.8066Z" stroke="#000072" stroke-miterlimit="10"/>
<path d="M37.6113 58.4212L38.8096 53.2805L44.4563 55.0127L47.8209 56.94V58.4212L47.0308 61.098C47.0308 61.098 41.3776 62.9756 37.6113 58.4212Z" fill="#000072"/>
<path d="M37.6113 58.4212L38.8096 53.2805L44.4563 55.0127L47.8209 56.94V58.4212L47.0308 61.098C47.0308 61.098 41.3776 62.9756 37.6113 58.4212Z" stroke="#000072" stroke-miterlimit="10"/>
<path d="M9.03369 51.5753L13.3808 62.9478" stroke="#000072" stroke-miterlimit="10"/>
<path d="M7.90479 53.0112C7.90479 53.0112 8.65593 58.2754 11.9349 62.8623" stroke="#000072" stroke-miterlimit="10"/>
<path d="M10.7988 51.1371C10.7988 51.1371 14.1942 56.953 14.7187 63.0391" stroke="#000072" stroke-miterlimit="10"/>
<path d="M12.9771 51.5753C12.9771 51.5753 15.0363 55.7171 16.1973 62.9478" stroke="#000072" stroke-miterlimit="10"/>
<path d="M7.44434 55.4668C7.44434 55.4668 7.45292 54.302 8.27358 54.7536C8.27358 54.7536 8.57895 52.7167 9.92037 54.0099C9.92037 54.0099 9.97117 51.9419 11.8458 53.1819C11.8458 53.1819 12.3805 51.6642 13.5034 53.0104C13.5034 53.0104 14.0604 52.6998 14.4187 53.4001" stroke="#000072" stroke-miterlimit="10"/>
<path d="M8.03564 53.7227C8.03564 53.7227 8.32345 52.2163 9.46916 52.7154C9.46916 52.7154 9.696 51.4771 11.2069 51.8888C11.2069 51.8888 11.4292 51.079 13.2219 52.1141" stroke="#000072" stroke-miterlimit="10"/>
<path d="M7.604 56.0869C7.604 56.0869 7.66726 54.9196 8.54248 55.7318C8.54248 55.7318 8.81823 53.7108 10.3473 55.0131C10.3473 55.0131 10.3882 53.0343 12.1676 54.1526C12.1676 54.1526 12.8222 53.0476 13.9632 54.0103C13.9632 54.0103 14.1669 53.4352 14.7363 54.0103" stroke="#000072" stroke-miterlimit="10"/>
<path d="M7.604 57.0884C7.604 57.0884 7.95922 55.966 8.93111 56.9403C8.93111 56.9403 9.52584 55.1076 10.7982 56.3479C10.7982 56.3479 11.3108 53.9015 12.8715 55.5817C12.8715 55.5817 13.1142 53.9844 14.3555 55.1662C14.3555 55.1662 14.4497 54.1853 15.1041 54.9729" stroke="#000072" stroke-miterlimit="10"/>
<path d="M7.90479 57.936C7.90479 57.936 8.23529 57.0115 9.1983 57.6752C9.1983 57.6752 10.2453 56.2159 11.2062 57.261C11.2062 57.261 12.2373 55.6902 13.2213 56.884C13.2213 56.884 13.733 55.4101 14.7449 56.4362C14.7449 56.4362 15.1199 55.8867 15.4228 56.362" stroke="#000072" stroke-miterlimit="10"/>
<path d="M8.25439 59.0239C8.25439 59.0239 8.83647 58.0168 9.58067 58.6183C9.58067 58.6183 10.2328 57.4704 11.6538 58.4267C11.6538 58.4267 12.33 56.8727 13.7214 58.0463C13.7214 58.0463 14.2246 56.724 15.1055 57.9229C15.1055 57.9229 15.1088 56.6398 15.7255 57.2606" stroke="#000072" stroke-miterlimit="10"/>
<path d="M8.68164 60.2944V59.9713C8.68164 59.9713 9.07158 58.7932 10.0052 59.5618C10.0052 59.5618 10.9693 58.4469 11.9894 59.3071C11.9894 59.3071 13.0435 57.9149 13.997 59.0247C13.997 59.0247 14.5712 57.808 15.424 59.0202" stroke="#000072" stroke-miterlimit="10"/>
<path d="M9.40723 60.6885C9.40723 60.6885 9.44336 60.0616 10.3683 60.2934C10.3683 60.2934 11.3598 59.5355 12.3456 60.2419C12.3456 60.2419 13.0411 58.9973 14.2215 59.9408C14.2215 59.9408 15.0389 58.9708 15.5981 59.7922" stroke="#000072" stroke-miterlimit="10"/>
<path d="M9.92139 61.4712C9.92139 61.4712 10.2787 60.9229 10.9325 61.3118C10.9325 61.3118 11.7814 60.4808 12.7029 61.1724C12.7029 61.1724 13.344 60.1921 14.4224 60.8974C14.4224 60.8974 15.1062 60.0036 15.7888 60.6889" stroke="#000072" stroke-miterlimit="10"/>
<path d="M10.6299 62.0273C10.6299 62.0273 10.742 61.4468 11.3553 62.0019C11.3553 62.0019 12.0718 61.5378 12.9776 62.0273C12.9776 62.0273 13.9656 61.4026 14.5877 61.8945C14.5877 61.8945 15.3966 61.2814 15.9341 61.8665" stroke="#000072" stroke-miterlimit="10"/>
<path d="M11.6646 62.433C11.6646 62.433 12.141 61.9283 13.222 62.5327C13.222 62.5327 13.8153 62.1673 14.3588 62.2962C14.4364 62.3146 14.513 62.3431 14.5867 62.3841" stroke="#000072" stroke-miterlimit="10"/>
<path d="M14.6685 62.5361C14.6685 62.5361 15.2181 62.0524 16.1518 62.3855" stroke="#000072" stroke-miterlimit="10"/>
<path d="M15.7258 57.0913C15.5618 57.4673 16.1982 63.3853 16.1982 63.3853H24.136L23.967 62.9472L22.1565 59.4626L21.0232 56.1893C18.4552 55.822 15.9344 49.7542 15.9344 49.7542L14.147 51.672L14.5881 52.715L15.4249 54.6665L15.7258 57.0913Z" fill="#000072"/>
<path d="M60.9745 51.3L57.0889 62.9478" stroke="#000072" stroke-miterlimit="10"/>
<path d="M62.0073 52.7211C62.0073 52.7211 61.3166 60.1539 58.0737 63.1255" stroke="#000072" stroke-miterlimit="10"/>
<path d="M59.4778 51.2291C59.4778 51.2291 56.8464 57.6061 55.5967 63.0186" stroke="#000072" stroke-miterlimit="10"/>
<path d="M57.2922 51.7886C57.2922 51.7886 55.3769 55.4122 54.3833 63.6929" stroke="#000072" stroke-miterlimit="10"/>
<path d="M62.6528 54.6851C62.6528 54.6851 62.4433 53.6547 61.7792 54.3483C61.7792 54.3483 61.5019 52.5065 60.1924 53.6437C60.1924 53.6437 59.8227 52.074 58.6734 53.2806C58.6734 53.2806 57.7788 51.7803 56.6647 53.2806C56.6647 53.2806 56.4345 52.9006 55.8955 53.4001" stroke="#000072" stroke-miterlimit="10"/>
<path d="M62.7198 55.728C62.7198 55.728 62.4739 54.7171 61.5681 55.4672C61.5681 55.4672 61.0415 54.2004 59.7357 55.013C59.7357 55.013 59.4295 53.73 58.0724 54.5657C58.0724 54.5657 57.6715 53.5889 56.3199 54.283C56.3199 54.283 56.0037 53.6653 55.4375 54.3375" stroke="#000072" stroke-miterlimit="10"/>
<path d="M62.7215 56.9399C62.7215 56.9399 62.2042 55.8513 61.3206 56.5564C61.3206 56.5564 60.4946 55.376 59.3011 56.3187C59.3011 56.3187 58.8497 55.1679 57.7022 55.9536C57.7022 55.9536 57.115 54.6847 55.8966 55.5814C55.8966 55.5814 55.6733 54.9125 54.7876 55.4668" stroke="#000072" stroke-miterlimit="10"/>
<path d="M62.5069 57.9233C62.5069 57.9233 62.202 56.847 60.9957 57.7397C60.9957 57.7397 60.1737 56.3579 58.9463 57.3809C58.9463 57.3809 58.4157 55.973 57.2909 57.1232C57.2909 57.1232 56.9361 55.9778 55.5967 56.8481C55.5967 56.8481 55.4007 55.9519 54.829 56.721C54.2573 57.49 54.6779 56.7066 54.6779 56.7066" stroke="#000072" stroke-miterlimit="10"/>
<path d="M62.1827 58.9917C62.1827 58.9917 61.7462 57.7899 60.6704 58.7335C60.6704 58.7335 59.9972 57.7522 58.6151 58.372C58.6151 58.372 57.7796 57.3596 56.8107 58.3715C56.8107 58.3715 56.151 57.3425 55.2847 58.1997C55.2847 58.1997 54.9472 56.511 54.1328 58.143" stroke="#000072" stroke-miterlimit="10"/>
<path d="M61.5223 59.8252C61.5223 59.8252 61.4957 58.7275 60.335 59.6104C60.335 59.6104 59.5702 58.5334 58.2238 59.546C58.2238 59.546 57.4958 58.4378 56.5113 59.6089C56.5113 59.6089 55.8405 58.5349 55.0085 59.5747C55.0085 59.5747 54.9824 57.7842 53.8594 59.1877" stroke="#000072" stroke-miterlimit="10"/>
<path d="M60.9753 60.7544C60.9753 60.7544 60.8025 60.1554 59.8755 60.6181C59.8755 60.6181 58.8685 59.8551 57.8732 60.5985C57.8732 60.5985 57.2987 59.7835 56.2472 60.5138C56.2472 60.5138 55.3819 59.7528 54.7874 60.4821C54.7874 60.4821 54.8398 59.1206 53.5781 60.166" stroke="#000072" stroke-miterlimit="10"/>
<path d="M60.3075 61.4813C60.3075 61.4813 60.1653 60.805 59.3953 61.4813C59.3953 61.4813 58.5208 60.8882 57.5378 61.6045C57.5378 61.6045 56.5703 60.9862 55.9479 61.6045C55.9479 61.6045 55.281 60.6924 54.5753 61.6045C54.5753 61.6045 54.3594 60.3991 53.6777 61.3926" stroke="#000072" stroke-miterlimit="10"/>
<path d="M59.7187 61.8297C59.7187 61.8297 59.3995 61.535 59.0791 61.9618C59.0791 61.9618 57.8009 61.5828 57.2907 62.3438C57.2907 62.3438 56.7416 61.74 55.7582 62.3438C55.7582 62.3438 55.2776 61.4522 54.5571 62.3438C54.5571 62.3438 54.1601 61.1585 53.416 62.3438" stroke="#000072" stroke-miterlimit="10"/>
<path d="M49.5754 56.094L52.1266 53.6133L54.1333 50.1792L54.3817 49.417L56.066 51.2999L56.1981 52.2353L55.2851 53.281L54.7869 54.5658L54.5745 56.094V56.9148L54.5572 57.4625C54.5572 57.4625 53.6859 61.606 54.1333 63.2367L46.3633 63.4312L46.1099 62.9475L47.379 60.4604L48.772 57.1607L49.5754 56.094Z" fill="#000072"/>
<path d="M48.1499 40.0088C48.1499 40.0088 41.9317 52.1831 41.2334 55.582" stroke="#000072" stroke-miterlimit="10"/>
<path d="M46.1654 40.9432C46.1654 40.9432 40.0868 53.2187 40.6245 54.2573" stroke="#000072" stroke-miterlimit="10"/>
<path d="M51.969 40.2728C51.969 40.2728 47.3476 52.9724 45.1982 55.9399" stroke="#000072" stroke-miterlimit="10"/>
<path d="M43.6313 42.7923C43.6313 42.7923 45.0376 41.2908 45.3852 42.5441C45.3852 42.5441 46.3294 41.1414 47.0987 42.1022C47.0987 42.1022 48.931 40.6137 49.2245 42.2791C49.2245 42.2791 50.8903 40.9548 51.0291 42.7923C51.0291 42.7923 51.634 42.6196 51.6193 44.1633C51.6193 44.1633 52.1627 45.3627 52.005 45.8286" stroke="#000072" stroke-miterlimit="10"/>
<path d="M45.9487 41.3867C45.9487 41.3867 47.0499 40.3833 47.6784 40.9432C47.6784 40.9432 49.16 39.428 49.9325 40.6885C49.9325 40.6885 51.3977 40.4273 51.4237 41.7486C51.4237 41.7486 52.0169 42.4996 51.9707 42.7921C51.9707 42.7921 51.2916 47.3957 49.9928 50.1314C49.9928 50.1314 48.2707 56.0927 46.517 56.5698" stroke="#000072" stroke-miterlimit="10"/>
<path d="M43.4194 43.7174C43.4194 43.7174 44.2998 42.6086 44.8219 43.7174C44.8219 43.7174 46.1129 42.4618 46.1652 43.7174C46.1652 43.7174 48.203 42.7233 48.4719 43.9706C48.4719 43.9706 49.9765 42.8885 50.2807 44.7387C50.2807 44.7387 51.7272 44.1928 51.2684 46.0753C51.2684 46.0753 52.0709 45.8635 51.9195 47.0474" stroke="#000072" stroke-miterlimit="10"/>
<path d="M42.6265 45.1029C42.6265 45.1029 43.9058 43.8971 44.0668 45.3161C44.0668 45.3161 45.3056 44.0992 45.3733 45.6375C45.3733 45.6375 47.5866 44.491 47.5361 46.0748C47.5361 46.0748 49.0822 45.5777 49.3598 47.0683C49.3598 47.0683 50.6953 46.6189 50.8342 47.8766C50.8342 47.8766 51.8193 47.8148 51.727 48.6177" stroke="#000072" stroke-miterlimit="10"/>
<path d="M41.9463 46.6384C41.9463 46.6384 42.9321 44.9779 43.5313 46.6286C43.5313 46.6286 44.3286 45.9029 44.6904 46.9311C44.6904 46.9311 46.6295 46.2783 46.7993 47.7308C46.7993 47.7308 48.1114 46.899 48.7655 48.2125C48.7655 48.2125 50.2874 47.959 50.5086 48.8649C50.5086 48.8649 51.2026 48.6469 51.4516 49.417" stroke="#000072" stroke-miterlimit="10"/>
<path d="M41.5581 47.6C41.5581 47.6 42.4703 47.1188 42.7422 48.212C42.7422 48.212 43.6869 47.3781 44.0663 48.3784C44.0663 48.3784 45.613 47.7815 46.1091 49.033C46.1091 49.033 47.7847 48.3918 48.3294 49.5722C48.3294 49.5722 49.4658 49.2675 50.0857 50.0452C50.0857 50.0452 50.8395 49.7596 50.9425 50.5361" stroke="#000072" stroke-miterlimit="10"/>
<path d="M40.9053 48.8844C40.9053 48.8844 42.1698 47.9364 42.1677 49.5267C42.1677 49.5267 43.2663 48.7424 43.4196 49.7217C43.4196 49.7217 45.1298 49.2213 45.5524 50.5364C45.5524 50.5364 46.9763 49.4895 47.6791 51.0873C47.6791 51.0873 49.1441 50.296 49.4764 51.6001" stroke="#000072" stroke-miterlimit="10"/>
<path d="M40.438 50.407C40.438 50.407 41.4152 49.3436 41.7415 50.5363C41.7415 50.5363 42.6413 49.7681 42.9733 50.8587C42.9733 50.8587 44.5472 50.4183 45.0788 51.6C45.0788 51.6 46.4916 50.9883 47.1792 52.2032C47.1792 52.2032 48.4006 51.4177 49.0315 52.6138" stroke="#000072" stroke-miterlimit="10"/>
<path d="M39.9995 51.4109C39.9995 51.4109 41.0011 50.7857 41.3163 51.6002C41.3163 51.6002 42.1936 50.9886 42.5313 51.8975C42.5313 51.8975 44.252 51.5403 44.5189 52.614C44.5189 52.614 46.0895 52.1607 46.6994 53.2302C46.6994 53.2302 47.8927 52.8038 48.5836 53.6496C48.5836 53.6496 48.8632 53.4806 48.8626 54.2573" stroke="#000072" stroke-miterlimit="10"/>
<path d="M39.6177 52.3565C39.6177 52.3565 40.688 51.8028 40.905 52.5128C40.905 52.5128 42.0535 52.0485 42.146 52.8429C42.146 52.8429 44.0936 52.3981 44.2092 53.5571C44.2092 53.5571 45.9336 53.0361 46.1884 54.2576C46.1884 54.2576 47.6833 53.637 48.0137 55.0132C48.0137 55.0132 48.5969 54.7343 48.7658 55.582" stroke="#000072" stroke-miterlimit="10"/>
<path d="M21.2002 39.1222C21.2002 39.1222 26.7432 48.3151 28.0385 54.2573" stroke="#000072" stroke-miterlimit="10"/>
<path d="M24.3804 40.8972C24.3804 40.8972 28.5214 48.5513 29.8963 53.6167" stroke="#000072" stroke-miterlimit="10"/>
<path d="M18.5342 40.5808C18.5342 40.5808 23.3615 54.39 24.9423 55.4668" stroke="#000072" stroke-miterlimit="10"/>
<path d="M18.3418 43.1586C18.3418 43.1586 22.2461 55.4643 23.4108 56.0938" stroke="#000072" stroke-miterlimit="10"/>
<path d="M18.8823 41.1377C18.8823 41.1377 18.99 39.6932 20.1564 40.5297C20.1564 40.5297 20.6212 39.4949 21.9425 40.3979C21.9425 40.3979 22.2933 39.8438 23.4094 40.2949" stroke="#000072" stroke-miterlimit="10"/>
<path d="M18.604 43.9702C18.604 43.9702 18.7086 42.9537 19.5316 43.3512C19.5316 43.3512 19.7864 41.9427 21.2029 42.9272C21.2029 42.9272 21.4657 41.4456 23.0292 42.3523C23.0292 42.3523 24.0118 41.0539 25.1434 42.3523C25.1434 42.3523 25.9714 41.5762 26.5761 42.3523" stroke="#000072" stroke-miterlimit="10"/>
<path d="M18.3418 42.75C18.3418 42.75 18.7049 42.1312 19.141 42.3525C19.141 42.3525 19.6112 41.0072 20.6266 41.6065C20.6266 41.6065 21.2701 40.6313 22.4313 41.2639C22.4313 41.2639 23.6403 40.7024 24.3813 41.0505" stroke="#000072" stroke-miterlimit="10"/>
<path d="M18.2075 45.8975C18.2075 45.8975 18.3471 45.2134 19.1391 45.6071C19.1391 45.6071 19.2483 44.573 20.1558 45.1073C20.1558 45.1073 20.3886 43.6877 22.0039 44.5668C22.0039 44.5668 22.1669 42.9103 23.8812 43.9701C23.8812 43.9701 24.6351 42.7 25.7771 43.6159C25.7771 43.6159 25.9043 42.8925 26.7793 43.5078" stroke="#000072" stroke-miterlimit="10"/>
<path d="M18.3418 47.4951C18.3418 47.4951 18.7031 46.3632 19.6254 47.0471C19.6254 47.0471 19.8161 45.8399 20.7642 46.6385C20.7642 46.6385 21.4666 45.5289 22.4953 46.075C22.4953 46.075 23.4208 44.5697 24.6209 45.4322C24.6209 45.4322 25.4922 44.2728 26.433 44.9573C26.433 44.9573 26.4665 44.5151 27.3569 44.7383" stroke="#000072" stroke-miterlimit="10"/>
<path d="M18.6074 48.6177C18.6074 48.6177 18.8557 47.4539 20.0245 48.2125C20.0245 48.2125 20.5672 47.4164 21.2743 47.9525C21.2743 47.9525 21.8826 46.6062 23.1394 47.3806C23.1394 47.3806 23.983 46.1547 25.338 46.9264C25.338 46.9264 25.9572 45.9028 27.1501 46.4892C27.1501 46.4892 27.0488 45.8876 27.9547 46.2706" stroke="#000072" stroke-miterlimit="10"/>
<path d="M19.0664 49.7544C19.0664 49.7544 19.3385 48.7331 20.2819 49.2457C20.2819 49.2457 20.844 48.1769 21.6979 48.9827C21.6979 48.9827 22.0743 47.6239 23.6718 48.5528C23.6718 48.5528 24.434 47.3667 25.8383 47.9468C25.8383 47.9468 26.3959 46.8253 27.653 47.5113C27.653 47.5113 27.9143 46.9546 28.549 47.3997" stroke="#000072" stroke-miterlimit="10"/>
<path d="M19.1396 50.7686C19.1396 50.7686 19.5225 49.4609 20.5682 49.7546C20.5682 49.7546 21.5078 49.2443 21.9814 49.7116C21.9814 49.7116 23.3323 48.6878 24.026 49.4171C24.026 49.4171 25.4218 48.3039 26.2677 49.013C26.2677 49.013 27.2209 48.2053 28.154 48.7678C28.154 48.7678 28.6652 48.1991 29.2967 48.6178" stroke="#000072" stroke-miterlimit="10"/>
<path d="M29.8973 50.1796C29.8973 50.1796 28.9251 48.8837 28.6994 50.1027C28.6994 50.1027 27.0398 49.0996 26.8833 50.5371C26.8833 50.5371 25.2531 49.302 24.6797 50.9157C24.6797 50.9157 23.0127 49.9911 22.589 51.2929C22.589 51.2929 21.5258 50.1711 21.3616 51.6009C21.3616 51.6009 20.8065 51.387 20.7095 51.9419" stroke="#000072" stroke-miterlimit="10"/>
<path d="M30.3346 51.2923C30.3346 51.2923 29.4357 50.291 29.1966 51.4262C29.1966 51.4262 27.8753 50.5494 27.3165 51.735C27.3165 51.735 25.8916 51.0086 25.3379 52.3563C25.3379 52.3563 23.8136 51.499 23.4092 52.9768C23.4092 52.9768 22.3624 52.5494 22.0043 53.6163C22.0043 53.6163 21.4661 53.4724 21.2002 54.2573" stroke="#000072" stroke-miterlimit="10"/>
<path d="M30.5448 52.1503C30.5448 52.1503 29.8664 50.9137 29.5496 52.4534C29.5496 52.4534 28.7077 51.9252 27.722 53.0103C27.722 53.0103 26.4612 52.5747 25.7691 53.4166C25.7691 53.4166 24.7704 53.1395 24.0459 53.8786C24.0061 53.9192 23.9671 53.9628 23.9292 54.0098" stroke="#000072" stroke-miterlimit="10"/>
<path d="M23.966 53.9631C23.966 53.9631 23.0347 53.8778 22.5509 54.7537C22.5509 54.7537 21.8789 54.7827 21.5686 55.5816C21.2584 56.3804 21.4231 55.4671 21.4231 55.4671" stroke="#000072" stroke-miterlimit="10"/>
<path fill-rule="evenodd" clip-rule="evenodd" d="M35.0849 6.64165C45.7818 6.64165 54.0106 17.8747 54.0106 27.2542C54.0106 36.634 38.9279 40.4243 35.0849 40.6092C31.2417 40.7941 15.375 36.3589 15.375 26.9792C15.375 17.5994 24.388 6.64165 35.0849 6.64165Z" fill="#FF850B"/>
<path d="M35.0849 7.09666C24.4173 7.09666 15.8271 17.973 15.8271 26.9781C15.8271 29.3198 16.8819 31.5218 18.9623 33.5232C23.5963 37.9811 32.0511 40.1571 34.8465 40.1574C34.9233 40.1574 34.9953 40.1558 35.0634 40.1525C37.0888 40.0551 41.7547 39.0034 45.7868 36.9706C49.3322 35.1832 53.5585 32.0464 53.5585 27.2531C53.5585 17.9319 45.4889 7.09666 35.0849 7.09666ZM34.858 41.0693C31.8592 41.0693 23.2168 38.8764 18.3384 34.1834C16.0721 32.0032 14.9229 29.579 14.9229 26.9781C14.9229 22.2831 17.1524 17.0509 20.8869 12.982C24.8518 8.66206 30.0268 6.18441 35.0849 6.18441C40.1746 6.18441 45.0814 8.65178 48.9017 13.132C52.3838 17.2156 54.4627 22.4945 54.4627 27.2531C54.4627 31.4161 51.6024 35.0586 46.1909 37.7867C42.0412 39.8788 37.2109 40.9625 35.1064 41.0638C35.0288 41.0675 34.9456 41.0693 34.858 41.0693Z" fill="#000072"/>
<g opacity="0.5">
<g opacity="0.5">
<path opacity="0.5" fill-rule="evenodd" clip-rule="evenodd" d="M35.0822 6.64049C41.6564 6.64049 47.2977 10.8842 50.6699 16.3322C50.705 16.5083 50.7388 16.6851 50.7684 16.8633C47.6896 12.3098 42.8891 9.30725 37.5727 8.49729C37.9136 8.62722 38.1112 8.78153 38.1112 8.94715C38.1112 9.41012 36.5658 9.7854 34.6594 9.7854C32.7532 9.7854 31.2078 9.41012 31.2078 8.94715C31.2078 8.78153 31.4051 8.62722 31.7462 8.49729C26.4296 9.30743 21.6296 12.3102 18.5508 16.8633L18.5678 16.7673C22.1179 11.1016 28.2571 6.64049 35.0822 6.64049Z" fill="white"/>
</g>
</g>
<path fill-rule="evenodd" clip-rule="evenodd" d="M53.5012 30.1363C50.8413 37.4206 38.5056 40.4446 35.0834 40.6092C31.6963 40.7722 18.9723 37.3457 15.9995 30.1096C16.2274 26.1682 18.2121 25.0909 21.8824 27.017C23.3917 27.8089 24.9272 28.635 26.1438 28.006C33.0884 24.4148 37.3288 25.0918 42.0821 28.006C44.3049 29.3689 46.4742 27.3359 47.8352 26.7161C52.1698 24.7415 54.1585 26.1225 53.5012 30.1363Z" fill="white"/>
<g opacity="0.300003">
<g opacity="0.300003">
<path opacity="0.300003" fill-rule="evenodd" clip-rule="evenodd" d="M53.9282 25.6162C53.982 26.1667 54.0106 26.7136 54.0106 27.2542C54.0106 27.5997 53.9878 27.9365 53.9482 28.2671L53.9522 28.1682C53.424 34.4278 40.9304 39.2074 34.2094 39.5932C28.599 39.9155 17.3935 33.822 15.5094 28.1682C15.5129 28.2854 15.5188 28.4024 15.5241 28.5193C15.4281 28.0213 15.375 27.5085 15.375 26.9791C15.375 26.5577 15.3939 26.1331 15.4295 25.7062L15.4587 25.6148C19.8386 31.9681 27.0236 35.7563 34.6942 35.7563C42.3639 35.7563 49.5484 31.9683 53.9282 25.6162Z" fill="#000072"/>
</g>
</g>
<path fill-rule="evenodd" clip-rule="evenodd" d="M28.164 22.6183C27.5659 22.3492 26.9536 21.8983 26.3279 21.2663C25.2433 21.316 24.3755 22.485 24.3755 23.9196C24.3755 25.3859 25.2816 26.5747 26.3994 26.5747C27.5174 26.5747 28.4235 25.3859 28.4235 23.9196C28.4235 23.4468 28.3292 23.0029 28.164 22.6183Z" fill="#000072"/>
<path d="M45.15 20.1188C44.4199 21.0972 43.7021 21.8538 42.9968 22.3885C41.959 23.1752 40.8358 23.3129 40.7114 22.4465C41.2696 22.382 41.8513 22.1202 42.4563 21.6616C43.9474 20.531 44.4136 19.8031 45.15 20.1188Z" fill="#000072"/>
<path fill-rule="evenodd" clip-rule="evenodd" d="M41.7468 22.6183C42.3449 22.3492 42.9572 21.8983 43.5831 21.2663C44.6677 21.316 45.5353 22.485 45.5353 23.9196C45.5353 25.3859 44.6294 26.5747 43.5114 26.5747C42.3935 26.5747 41.4873 25.3859 41.4873 23.9196C41.4873 23.4468 41.5816 23.0029 41.7468 22.6183Z" fill="#000072"/>
<path fill-rule="evenodd" clip-rule="evenodd" d="M42.6763 23.2437C42.348 23.2437 42.082 23.5297 42.082 23.8823C42.082 24.235 42.348 24.521 42.6763 24.521C43.0045 24.521 43.2704 24.235 43.2704 23.8823C43.2704 23.5297 43.0045 23.2437 42.6763 23.2437Z" fill="white"/>
<path fill-rule="evenodd" clip-rule="evenodd" d="M34.6936 24.3855C36.1411 24.3855 37.3144 25.1747 37.3144 26.1482C37.3144 27.1219 36.1411 27.9111 34.6936 27.9111C33.2461 27.9111 32.0728 27.1219 32.0728 26.1482C32.0728 25.1747 33.2461 24.3855 34.6936 24.3855Z" fill="#000072"/>
<path d="M37.1975 30.0718C36.275 30.0718 35.3827 29.7257 34.698 29.1071C33.9333 29.8098 32.8791 30.1366 31.843 29.9704C30.6395 29.7775 29.6187 28.9452 29.179 27.7984C29.0889 27.5634 29.2047 27.2993 29.4376 27.2084C29.6703 27.1175 29.9321 27.2343 30.0223 27.4692C30.3462 28.3142 31.0982 28.9274 31.9849 29.0695C32.8721 29.2117 33.7753 28.8641 34.3429 28.1624C34.4277 28.0576 34.5542 27.9962 34.6882 27.9947C34.8234 27.9949 34.95 28.0519 35.0371 28.1548C35.6291 28.8547 36.5234 29.2265 37.4334 29.1495C38.3422 29.0726 39.164 28.5552 39.632 27.7655C39.76 27.5492 40.038 27.4787 40.252 27.6081C40.4662 27.7373 40.5361 28.0174 40.408 28.2336C39.791 29.2749 38.7073 29.9572 37.5091 30.0586C37.405 30.0674 37.301 30.0718 37.1975 30.0718Z" fill="#000072"/>
<path fill-rule="evenodd" clip-rule="evenodd" d="M34.6944 28.4506C35.6368 29.3544 36.5628 29.7389 37.4724 29.6039C37.6974 35.5612 31.7115 35.3185 31.9152 29.5197C33.0304 29.6625 33.9565 29.3063 34.6944 28.4506Z" fill="#000072"/>
<path d="M32.3663 30.0066C32.4111 31.5245 32.9447 32.7179 33.8335 33.2488C34.4207 33.5994 35.0841 33.6044 35.6541 33.262C36.5049 32.7507 36.9943 31.6062 37.0257 30.0847C36.2565 30.0598 35.4836 29.7239 34.7183 29.0817C34.0595 29.6968 33.2783 30.0067 32.3868 30.0067C32.3801 30.0067 32.3732 30.0067 32.3663 30.0066ZM34.7627 34.4258C34.2877 34.4258 33.8103 34.2951 33.3729 34.0338C32.0858 33.2649 31.3902 31.6137 31.4644 29.5034L31.482 29.0042L31.973 29.0671C32.9385 29.1905 33.7162 28.8908 34.3542 28.1511L34.6643 27.7915L35.0067 28.1199C35.8509 28.9293 36.637 29.2673 37.4075 29.1524L37.9059 29.0785L37.9251 29.5863C38.0042 31.6822 37.345 33.3076 36.1168 34.0458C35.695 34.2991 35.2301 34.4258 34.7627 34.4258Z" fill="#000072"/>
<path fill-rule="evenodd" clip-rule="evenodd" d="M34.7435 31.7452C33.9387 31.7452 33.1827 32.1339 32.71 32.7906C33.7982 34.3541 35.7276 34.3797 36.7673 32.7773C36.2939 32.1286 35.5426 31.7452 34.7435 31.7452Z" fill="#FF0066"/>
<path d="M33.2957 32.801C33.7148 33.2671 34.242 33.5199 34.789 33.5147C35.3176 33.5061 35.8054 33.2543 36.1891 32.7985C35.8067 32.42 35.2863 32.2012 34.7437 32.2012C34.1991 32.2012 33.6782 32.4208 33.2957 32.801ZM34.7608 34.4272C33.8298 34.4272 32.9496 33.9282 32.3403 33.0526L32.1548 32.7861L32.3445 32.5225C32.9004 31.7501 33.7973 31.289 34.7437 31.289C35.6825 31.289 36.5751 31.7442 37.1316 32.5068L37.3177 32.762L37.1458 33.0271C36.5784 33.9015 35.7248 34.4117 34.8037 34.4269C34.7894 34.4271 34.7751 34.4272 34.7608 34.4272Z" fill="#000072"/>
<path fill-rule="evenodd" clip-rule="evenodd" d="M51.8091 17.709C48.9057 12.8683 45.4246 9.591 41.3657 7.87757C49.3275 -3.37842 52.8086 -0.101294 51.8091 17.709Z" fill="#FF850B"/>
<path d="M42.0591 7.68579C45.6225 9.32662 48.7679 12.2028 51.429 16.252C51.9146 5.27781 50.4392 2.35725 49.0821 1.87567C48.0462 1.50841 45.9927 2.23874 42.0591 7.68579ZM52.1772 19.2046L51.4216 17.9448C48.5823 13.211 45.1399 9.96534 41.1905 8.29804L40.668 8.07745L40.997 7.61227C44.639 2.46349 47.3809 0.304737 49.382 1.01511C51.9346 1.92096 52.849 7.23364 52.2598 17.7345L52.1772 19.2046Z" fill="#000072"/>
<path fill-rule="evenodd" clip-rule="evenodd" d="M40.6732 18.2981C41.3428 18.0211 42.0179 18.1215 42.1808 18.5224C42.3437 18.9234 41.9329 19.4731 41.2635 19.7503C40.5939 20.0273 39.9188 19.9267 39.7559 19.5258C39.5929 19.1249 40.0038 18.5751 40.6732 18.2981Z" fill="white"/>
<path fill-rule="evenodd" clip-rule="evenodd" d="M29.0086 18.2714C28.339 17.9942 27.6639 18.0948 27.501 18.4957C27.3381 18.8966 27.7488 19.4464 28.4184 19.7234C29.0878 20.0004 29.7629 19.9 29.9258 19.4991C30.0887 19.0981 29.6781 18.5484 29.0086 18.2714Z" fill="white"/>
<path fill-rule="evenodd" clip-rule="evenodd" d="M26.6973 23.2437C26.369 23.2437 26.103 23.5297 26.103 23.8823C26.103 24.235 26.369 24.521 26.6973 24.521C27.0255 24.521 27.2914 24.235 27.2914 23.8823C27.2914 23.5297 27.0255 23.2437 26.6973 23.2437Z" fill="white"/>
<path fill-rule="evenodd" clip-rule="evenodd" d="M17.8826 17.9399C20.7858 13.0991 24.2669 9.82196 28.3258 8.10835C20.364 -3.14764 16.8829 0.129671 17.8826 17.9399Z" fill="#FF850B"/>
<path d="M21.0916 2.02652C20.9099 2.02652 20.7495 2.0562 20.6081 2.10642C19.251 2.58802 17.7757 5.50851 18.2612 16.4827C20.9222 12.4336 24.0675 9.55744 27.6309 7.91644C24.2345 3.21329 22.2396 2.02652 21.0916 2.02652ZM17.5131 19.4355L17.4306 17.9653C16.8412 7.46439 17.7555 2.15174 20.3081 1.2458C22.3079 0.536299 25.0508 2.69381 28.6931 7.84292L29.0221 8.3081L28.4996 8.52869C24.5499 10.1962 21.1077 13.4419 18.2687 18.1757L17.5131 19.4355Z" fill="#000072"/>
<g opacity="0.649994">
<g opacity="0.649994">
<path opacity="0.649994" fill-rule="evenodd" clip-rule="evenodd" d="M27.331 8.56787C27.6596 8.40399 27.9923 8.25108 28.3288 8.10879C23.3943 1.13256 20.1818 -0.25845 18.6895 3.93014C20.2787 0.98478 23.159 2.53048 27.3305 8.56752L27.331 8.56787Z" fill="white"/>
</g>
</g>
<path fill-rule="evenodd" clip-rule="evenodd" d="M20.0558 14.6587C21.4711 12.8926 23.075 11.3639 24.8679 10.0729C20.849 2.1768 19.2448 3.70533 20.0558 14.6587Z" fill="#000072"/>
<path d="M21.0897 5.56739C21.0699 5.56739 21.0564 5.57005 21.0485 5.57229C21.0001 5.58605 20.5706 5.76462 20.3868 7.77565C20.2629 9.13064 20.2776 11.0547 20.4298 13.5052C21.5983 12.1713 22.8911 10.9743 24.2871 9.93411C22.1724 5.85609 21.2952 5.56739 21.0897 5.56739ZM19.6895 15.8403L19.6046 14.6924C18.9875 6.35752 19.8642 4.96103 20.8034 4.69418C21.9265 4.3743 23.2627 5.92111 25.2697 9.86424L25.4482 10.2149L25.1301 10.4439C23.3796 11.7044 21.7905 13.2188 20.4069 14.9452L19.6895 15.8403Z" fill="#000072"/>
<g opacity="0.300003">
<g opacity="0.300003">
<path opacity="0.300003" fill-rule="evenodd" clip-rule="evenodd" d="M20.5776 5.37461C19.111 6.48121 18.1637 9.47514 17.7358 14.3561C17.7616 15.477 17.8101 16.6715 17.8813 17.9399C18.0982 17.5442 18.3275 17.153 18.5698 16.768L18.5528 16.864C19.7244 15.0611 20.9846 13.4981 22.3331 12.1748C21.5445 12.9252 20.8015 13.733 20.1039 14.5981C20.0902 14.6151 20.0765 14.6319 20.0629 14.6492C20.0616 14.6506 20.0604 14.6522 20.059 14.6542C20.0578 14.6556 20.0567 14.657 20.0555 14.6584C19.6625 9.35125 19.8367 6.2567 20.5776 5.37461ZM49.1118 5.14394C50.5786 6.25069 51.5259 9.24447 51.9536 14.1254C51.9278 15.2463 51.8793 16.4409 51.8083 17.7093C51.5913 17.3135 51.3619 16.9225 51.1196 16.5373L51.1366 16.6333C49.9652 14.8304 48.705 13.2674 47.3563 11.9443C48.145 12.6947 48.8879 13.5025 49.5856 14.3676C49.5992 14.3844 49.6129 14.4014 49.6266 14.4185C49.6278 14.4201 49.629 14.4217 49.6304 14.4235C49.6317 14.4251 49.6327 14.4263 49.6339 14.4279C50.0271 9.12073 49.8527 6.02601 49.1118 5.14394Z" fill="#000072"/>
</g>
</g>
<g opacity="0.649994">
<g opacity="0.649994">
<path opacity="0.649994" fill-rule="evenodd" clip-rule="evenodd" d="M42.3655 8.33789C42.0369 8.17401 41.7042 8.0211 41.3677 7.87898C46.3022 0.902755 49.5149 -0.488433 51.0072 3.70016C49.418 0.754797 46.5375 2.30065 42.366 8.33771L42.3655 8.33789Z" fill="white"/>
</g>
</g>
<path fill-rule="evenodd" clip-rule="evenodd" d="M49.6339 14.4277C48.2186 12.6614 46.6146 11.1327 44.8218 9.84177C48.8407 1.94565 50.445 3.47434 49.6339 14.4277Z" fill="#000072"/>
<path d="M45.4023 9.70334C46.7985 10.7437 48.0914 11.9409 49.2595 13.2746C49.4118 10.824 49.4264 8.9 49.3025 7.54497C49.1187 5.53392 48.6893 5.35529 48.6409 5.34158C48.5516 5.3166 47.7207 5.23239 45.4023 9.70334ZM49.9997 15.6099L49.2824 14.7146C47.8992 12.9884 46.3102 11.4739 44.5593 10.2132L44.2412 9.98418L44.4197 9.6335C46.4266 5.69066 47.7616 4.14392 48.886 4.4635C49.8251 4.73032 50.7019 6.12684 50.0847 14.4618L49.9997 15.6099Z" fill="#000072"/>
<path d="M21.0918 2.02658C20.9101 2.02658 20.7497 2.05625 20.6083 2.10647C19.2512 2.58807 17.7757 5.50863 18.2613 16.4829C20.9224 12.4337 24.0676 9.55744 27.6311 7.91649C24.2347 3.21334 22.2398 2.02658 21.0918 2.02658ZM17.513 19.4355L17.4305 17.9653C16.8412 7.46444 17.7557 2.15171 20.3083 1.24586C22.3081 0.53635 25.051 2.69386 28.6932 7.84297L29.0223 8.30815L28.4997 8.52874C24.5501 10.1962 21.1079 13.4419 18.2687 18.1757L17.513 19.4355Z" fill="#000072"/>
<path d="M35.0849 7.09666C24.4173 7.09666 15.8271 17.973 15.8271 26.9781C15.8271 29.3198 16.8819 31.5218 18.9623 33.5232C23.5963 37.9811 32.0511 40.1571 34.8465 40.1574C34.9233 40.1574 34.9953 40.1558 35.0634 40.1525C37.0888 40.0551 41.7547 39.0034 45.7868 36.9706C49.3322 35.1832 53.5585 32.0464 53.5585 27.2531C53.5585 17.9319 45.4889 7.09666 35.0849 7.09666ZM34.858 41.0693C31.8592 41.0693 23.2168 38.8764 18.3384 34.1834C16.0721 32.0032 14.9229 29.579 14.9229 26.9781C14.9229 22.2831 17.1524 17.0509 20.8869 12.982C24.8518 8.66206 30.0268 6.18441 35.0849 6.18441C40.1746 6.18441 45.0814 8.65178 48.9017 13.132C52.3838 17.2156 54.4627 22.4945 54.4627 27.2531C54.4627 31.4161 51.6024 35.0586 46.1909 37.7867C42.0412 39.8788 37.2109 40.9625 35.1064 41.0638C35.0288 41.0675 34.9456 41.0693 34.858 41.0693Z" fill="#000072"/>
<g opacity="0.559998">
<g opacity="0.559998">
<path opacity="0.559998" fill-rule="evenodd" clip-rule="evenodd" d="M35.5448 25.0911C35.94 25.1963 36.2324 25.3879 36.1981 25.5194C36.1638 25.6508 35.8157 25.6722 35.4204 25.567C35.0251 25.462 34.7326 25.2702 34.7669 25.1387C34.8012 25.0074 35.1495 24.986 35.5448 25.0911Z" fill="white"/>
</g>
</g>
<path d="M25.0879 20.1188C25.8181 21.0972 26.5359 21.8538 27.2413 22.3885C28.279 23.1752 29.4022 23.3129 29.5266 22.4465C28.9684 22.382 28.3868 22.1202 27.7816 21.6616C26.2906 20.531 25.8243 19.8031 25.0879 20.1188Z" fill="#000072"/>
<path d="M42.0591 7.68579C45.6225 9.32662 48.7679 12.2028 51.429 16.252C51.9146 5.27781 50.4392 2.35725 49.0821 1.87567C48.0462 1.50841 45.9927 2.23874 42.0591 7.68579ZM52.1772 19.2046L51.4216 17.9448C48.5823 13.211 45.1399 9.96534 41.1905 8.29804L40.668 8.07745L40.997 7.61227C44.639 2.46349 47.3809 0.304737 49.382 1.01511C51.9346 1.92096 52.849 7.23364 52.2598 17.7345L52.1772 19.2046Z" fill="#000072"/>
</svg>
